# File created by Blade
# Date/Time:  Thu Jan 15 17:55:17 2015
#---------------------------------------------------------
:version 1.10
:name HOM
:units
  mass 1.0
  length 1.000000
  angle deg
:documentation
     Acclaim Skeleton File
:root
   axis xyz
   order TX TY TZ RX RY RZ
   position 0.000000 0.000000 0.000000
   orientation 0 0 0
:bonedata
   begin
      id 1
      name Spine_dum
      direction 0.000000 1.000000 0.000000
      length 5.015652
      axis 0.0 0.0 0.0 xyz
   end
   begin
      id 2
      name LeftUpLeg_dum
      direction 1.000000 0.000000 0.000000
      length 4.275145
      axis 0.0 0.0 0.0 xyz
   end
   begin
      id 3
      name RightUpLeg_dum
      direction -1.000000 0.000000 0.000000
      length 4.275145
      axis 0.0 0.0 0.0 xyz
   end
   begin
      id 4
      name Spine
      direction 0.000000 1.000000 0.000000
      length 0.000000
      axis 0.0 0.0 0.0 xyz
      dof rx ry rz
   end
   begin
      id 5
      name Spine_dum1
      direction 0.000000 1.000000 0.000000
      length 15.980521
      axis 0.0 0.0 0.0 xyz
   end
   begin
      id 6
      name Spine_dum2
      direction 0.000000 1.000000 0.000000
      length 12.162712
      axis 0.0 0.0 0.0 xyz
   end
   begin
      id 7
      name Spine_dum3
      direction 0.000000 1.000000 0.000000
      length 12.162712
      axis 0.0 0.0 0.0 xyz
   end
   begin
      id 8
      name Head
      direction 0.000000 1.000000 0.000000
      length 4.527550
      axis 0.0 0.0 0.0 xyz
      dof rx ry rz
   end
   begin
      id 9
      name LeftShoulder
      direction 1.000000 0.000000 0.000000
      length 7.205867
      axis 0.0 0.0 -90.0 xyz
      dof rx ry rz
   end
   begin
      id 10
      name LeftArm
      direction 1.000000 0.000000 0.000000
      length 10.786708
      axis 0.0 0.0 -90.0 xyz
      dof rx ry rz
   end
   begin
      id 11
      name LeftForeArm
      direction 1.000000 0.000000 0.000000
      length 7.946034
      axis 0.0 0.0 -90.0 xyz
      dof rz ry rx
   end
   begin
      id 12
      name LeftHand
      direction 0.000000 0.000000 0.000000
      length 0.000000
      axis 0.0 0.0 -90.0 xyz
      dof rx ry rz
   end
   begin
      id 13
      name LeftHand_dum1
      direction 0.000000 0.000000 0.000000
      length 0.000000
      axis 0.0 0.0 -90.0 xyz
   end
   begin
      id 14
      name LeftHand_dum2
      direction 1.000000 0.000000 0.000000
      length 3.937000
      axis 0.0 0.0 -90.0 xyz
   end
   begin
      id 15
      name LeftHandThumb1
      direction 0.000000 0.000000 1.000000
      length 3.937000
      axis 0.0 0.0 -90.0 xyz
      dof rx ry rz
   end
   begin
      id 16
      name RightShoulder
      direction -1.000000 0.000000 0.000000
      length 7.205867
      axis 0.0 0.0 90.0 xyz
      dof rx ry rz
   end
   begin
      id 17
      name RightArm
      direction -1.000000 0.000000 0.000000
      length 10.786708
      axis 0.0 0.0 90.0 xyz
      dof rx ry rz
   end
   begin
      id 18
      name RightForeArm
      direction -1.000000 0.000000 0.000000
      length 7.946034
      axis 0.0 0.0 90.0 xyz
      dof rz ry rx
   end
   begin
      id 19
      name RightHand
      direction 0.000000 0.000000 0.000000
      length 0.000000
      axis 0.0 0.0 90.0 xyz
      dof rx ry rz
   end
   begin
      id 20
      name RightHand_dum1
      direction 0.000000 0.000000 0.000000
      length 0.000000
      axis 0.0 0.0 90.0 xyz
   end
   begin
      id 21
      name RightHand_dum2
      direction -1.000000 0.000000 0.000000
      length 3.937000
      axis 0.0 0.0 90.0 xyz
   end
   begin
      id 22
      name RightHandThumb1
      direction 0.000000 0.000000 1.000000
      length 3.937000
      axis 0.0 0.0 90.0 xyz
      dof rx ry rz
   end
   begin
      id 23
      name LeftUpLeg
      direction 0.000000 -1.000000 0.000000
      length 17.046659
      axis 0.0 0.0 0.0 xyz
      dof rx ry rz
   end
   begin
      id 24
      name LeftLeg
      direction 0.000000 -1.000000 0.000000
      length 17.458438
      axis 0.0 0.0 0.0 xyz
      dof rx ry rz
   end
   begin
      id 25
      name LeftFoot
      direction 0.000000 -0.258819 0.965926
      length 5.099406
      axis 15.0 0.0 0.0 xyz
      dof rx ry rz
   end
   begin
      id 26
      name LeftToeBase
      direction 0.000000 0.000000 1.000000
      length 2.952750
      axis 0.0 0.0 0.0 xyz
      dof rx ry rz
   end
   begin
      id 27
      name RightUpLeg
      direction 0.000000 -1.000000 0.000000
      length 17.046659
      axis 0.0 0.0 0.0 xyz
      dof rx ry rz
   end
   begin
      id 28
      name RightLeg
      direction 0.000000 -1.000000 0.000000
      length 17.458438
      axis 0.0 0.0 0.0 xyz
      dof rx ry rz
   end
   begin
      id 29
      name RightFoot
      direction 0.000000 -0.258819 0.965926
      length 5.099406
      axis 15.0 0.0 0.0 xyz
      dof rx ry rz
   end
   begin
      id 30
      name RightToeBase
      direction 0.000000 0.000000 1.000000
      length 2.952750
      axis 0.0 0.0 0.0 xyz
      dof rx ry rz
   end
:hierarchy
   begin
      root Spine_dum LeftUpLeg_dum RightUpLeg_dum
      Spine_dum Spine
      LeftUpLeg_dum LeftUpLeg
      RightUpLeg_dum RightUpLeg
      Spine Spine_dum1 Spine_dum2 Spine_dum3
      Spine_dum1 Head
      Spine_dum2 LeftShoulder
      Spine_dum3 RightShoulder
      LeftShoulder LeftArm
      LeftArm LeftForeArm
      LeftForeArm LeftHand
      LeftHand LeftHand_dum1 LeftHand_dum2
      LeftHand_dum1 LeftHandThumb1
      RightShoulder RightArm
      RightArm RightForeArm
      RightForeArm RightHand
      RightHand RightHand_dum1 RightHand_dum2
      RightHand_dum1 RightHandThumb1
      LeftUpLeg LeftLeg
      LeftLeg LeftFoot
      LeftFoot LeftToeBase
      RightUpLeg RightLeg
      RightLeg RightFoot
      RightFoot RightToeBase
   end

# File created by Blade
# Date/Time:  Thu Jan 15 17:55:09 2015
# Frame Rate: 120.000 fps
#------------------------------------------------------
:FULLY-SPECIFIED
:DEGREES
627
root 10.163261 36.223051 -12.646018 -5.872638 7.707429 -3.711250
Spine 6.302636 -23.295390 -5.293891
Head 0.454613 8.663562 24.526214
LeftShoulder -30.145196 -0.171100 1.565726
LeftArm 8.777095 -11.475767 -78.113917
LeftForeArm -0.000000 13.104886 8.819128
LeftHand 3.339797 -0.000000 0.928741
LeftHandThumb1 -26.253704 33.147579 0.000000
RightShoulder -2.520718 4.482461 6.342653
RightArm 6.686506 5.081900 73.857607
RightForeArm 0.000000 -38.469357 34.953202
RightHand 0.283057 -0.000000 -2.157626
RightHandThumb1 -24.326973 -32.862282 -0.000000
LeftUpLeg 5.805579 13.225961 -2.780174
LeftLeg 3.517604 -0.000000 -0.000000
LeftFoot -22.485300 13.942181 -12.124885
LeftToeBase 28.008166 -0.000000 -0.000000
RightUpLeg -65.400010 -3.775455 8.517860
RightLeg 92.560047 -0.000000 -0.000000
RightFoot 15.990250 -44.434545 -11.382058
RightToeBase 21.022550 -0.000000 -0.000000
628
root 10.140226 36.227039 -12.627885 -5.665358 7.809397 -3.683045
Spine 6.054812 -22.980111 -5.394954
Head 0.289360 8.269191 24.755391
LeftShoulder -30.163607 -0.100004 1.606199
LeftArm 8.834445 -12.087859 -78.052389
LeftForeArm 0.000000 13.500515 8.943309
LeftHand 3.445021 -0.000000 0.908005
LeftHandThumb1 -26.253704 33.147579 0.000000
RightShoulder -2.524249 4.461065 6.417727
RightArm 6.874494 4.289747 73.872871
RightForeArm 0.000000 -38.615319 35.186524
RightHand 0.288136 -0.000000 -2.445124
RightHandThumb1 -24.326973 -32.862282 -0.000000
LeftUpLeg 5.711141 13.140115 -2.817461
LeftLeg 3.325964 -0.000000 -0.000000
LeftFoot -22.359597 13.967710 -12.116970
LeftToeBase 27.786121 -0.000000 -0.000000
RightUpLeg -63.771677 -3.841360 8.329692
RightLeg 91.333402 -0.000000 -0.000000
RightFoot 15.327308 -44.320924 -11.100923
RightToeBase 20.721368 -0.000000 -0.000000
629
root 10.119231 36.229244 -12.605189 -5.512719 7.919858 -3.614248
Spine 5.880067 -22.703166 -5.565228
Head 0.116748 7.916504 24.960773
LeftShoulder -30.209371 -0.040265 1.653306
LeftArm 8.852604 -12.398564 -77.927935
LeftForeArm -0.000000 13.636463 9.089287
LeftHand 3.490666 -0.000000 0.963838
LeftHandThumb1 -26.253704 33.147579 0.000000
RightShoulder -2.468428 4.374117 6.436485
RightArm 7.117863 3.808901 74.039137
RightForeArm -0.000000 -38.844274 35.342556
RightHand 0.281067 -0.000000 -2.380687
RightHandThumb1 -24.326973 -32.862282 -0.000000
LeftUpLeg 5.675768 13.101517 -2.876699
LeftLeg 3.154751 -0.000000 -0.000000
LeftFoot -22.242749 13.924687 -12.137892
LeftToeBase 27.817179 -0.000000 -0.000000
RightUpLeg -62.091222 -3.865315 8.077948
RightLeg 90.105345 -0.000000 -0.000000
RightFoot 14.584886 -44.185032 -10.620518
RightToeBase 20.213526 -0.000000 -0.000000
630
root 10.101676 36.229884 -12.580557 -5.323938 8.044161 -3.539372
Spine 5.670571 -22.399627 -5.712490
Head -0.109003 7.537918 25.136423
LeftShoulder -30.262656 0.042619 1.670290
LeftArm 8.890205 -12.564278 -77.791444
LeftForeArm -0.000000 13.782439 9.307224
LeftHand 3.492280 0.000000 0.850103
LeftHandThumb1 -26.253704 33.147579 0.000000
RightShoulder -2.490707 4.423719 6.419294
RightArm 7.260813 3.308242 74.173156
RightForeArm 0.000000 -39.123404 35.389161
RightHand 0.551055 0.000000 -2.249199
RightHandThumb1 -24.326973 -32.862282 -0.000000
LeftUpLeg 5.594883 12.934698 -2.967162
LeftLeg 3.016118 -0.000000 -0.000000
LeftFoot -22.175439 13.951389 -12.201487
LeftToeBase 27.794836 -0.000000 -0.000000
RightUpLeg -60.431243 -3.908451 7.835251
RightLeg 88.814019 -0.000000 -0.000000
RightFoot 13.891621 -44.078278 -10.368249
RightToeBase 19.998890 -0.000000 -0.000000
